<svg width="40" height="40" viewBox="0 0 40 40" fill="none" xmlns="http://www.w3.org/2000/svg">
<path d="M15.2396 18.757V18.7441C13.7446 18.7441 12.5381 19.9801 12.5381 21.4991C12.5381 23.0182 13.7446 24.2542 15.2396 24.2542C16.7347 24.2542 17.9413 23.0183 17.9413 21.512C17.9413 19.9928 16.7216 18.757 15.2396 18.757Z" fill="white"/>
<path d="M20 0.46875C9.2132 0.46875 0.46875 9.2132 0.46875 20C0.46875 30.7868 9.2132 39.5312 20 39.5312C30.7868 39.5312 39.5312 30.7868 39.5312 20C39.5312 9.2132 30.7868 0.46875 20 0.46875ZM27.2261 30.3055C27.2261 30.3055 26.2422 29.2109 25.5343 28.2457C28.9441 27.2802 30.2296 25.3491 30.2296 25.3491C26.6844 27.5411 23.3734 28.3845 20 28.2748C16.6266 28.3842 13.3156 27.5411 9.77078 25.3491C9.77078 25.3491 11.0559 27.2802 14.4661 28.2457C13.758 29.2113 12.7744 30.3055 12.7744 30.3055C6.92492 30.1768 4.65625 26.5979 4.525 26.7523C4.525 18.7836 8.39375 12.295 8.39375 12.295C11.8559 9.81063 15.0821 9.70734 15.6984 9.69445L16.092 10.0678C11.6723 11.3037 9.53469 13.2348 9.53469 13.2348C13.3279 11.4027 16.903 10.7582 20 10.7196C23.097 10.7587 26.6719 11.4027 30.4653 13.2348C30.4653 13.2348 28.3277 11.3037 23.9081 10.0678L24.3016 9.69445C24.918 9.70734 28.1441 9.81031 31.6063 12.295C31.6063 12.295 35.4749 18.7834 35.4749 26.7523C35.3438 26.5979 33.0751 30.1768 27.2261 30.3055Z" fill="white"/>
<path d="M24.7602 18.7441V18.757C23.2783 18.757 22.0586 19.993 22.0586 21.512C22.0586 23.0183 23.2652 24.2542 24.7602 24.2542C26.2552 24.2542 27.4618 23.0183 27.4618 21.4991C27.4618 19.98 26.2553 18.7441 24.7602 18.7441Z" fill="white"/>
</svg>
