<svg width="12" height="14" viewBox="0 0 12 14" fill="none" xmlns="http://www.w3.org/2000/svg">
<path d="M10.9583 5.25H10.0833V4.08332C10.0833 1.83176 8.25159 0 6 0C3.74841 0 1.91668 1.83176 1.91668 4.08332V5.25H1.04168C0.880457 5.25 0.75 5.38046 0.75 5.54168V12.8334C0.75 13.4768 1.27322 14 1.91668 14H10.0834C10.7268 14 11.25 13.4768 11.25 12.8333V5.54168C11.25 5.38046 11.1195 5.25 10.9583 5.25ZM6.8733 11.3428C6.88241 11.4251 6.85594 11.5077 6.80068 11.5696C6.74542 11.6313 6.66623 11.6667 6.58335 11.6667H5.41668C5.3338 11.6667 5.25461 11.6313 5.19935 11.5696C5.14409 11.5078 5.11759 11.4251 5.12672 11.3428L5.31072 9.68825C5.01193 9.47092 4.83335 9.12712 4.83335 8.75C4.83335 8.10657 5.35657 7.58332 6.00003 7.58332C6.64348 7.58332 7.1667 8.10655 7.1667 8.75C7.1667 9.12712 6.98812 9.47092 6.68934 9.68825L6.8733 11.3428ZM8.33332 5.25H3.66668V4.08332C3.66668 2.79675 4.71342 1.75 6 1.75C7.28658 1.75 8.33332 2.79675 8.33332 4.08332V5.25Z" fill="#AC041D"/>
</svg>
