<svg width="1132" height="199" viewBox="0 0 1132 199" fill="none" xmlns="http://www.w3.org/2000/svg">
<path d="M529.666 148.24L511.085 166.806C510.655 168.469 510.453 170.182 510.485 171.898H623.298V147.791H534.608C532.95 147.785 531.296 147.935 529.666 148.24ZM526.967 118.89C516.18 129.97 504.493 142.099 520.525 155.127L551.54 124.132C559.782 116.046 558.282 100.631 558.282 87.4461L526.967 118.89ZM456.396 86.9965C456.396 112.753 460.591 125.628 472.414 137.457L481.705 147.191C490.993 155.277 495.038 155.127 520.662 155.127L456.396 86.9965ZM460.591 84.6123C460.591 58.856 456.396 45.9778 444.572 34.1487L423.745 11.9892C412.194 1.64851 406.652 0.149865 381.043 0.149865L460.591 84.6123ZM30.5652 25.6064L19.9281 36.2366V128.775C21.0819 128.749 22.2329 128.649 23.3738 128.475L43.9017 107.971C44.0264 106.878 44.0765 105.777 44.0517 104.677V25.6064H30.5652ZM133.944 31.7441L127.809 25.6133H37.15V49.7279H98.8904C122.564 49.7279 131.855 42.8239 133.944 31.7441ZM126.446 24.2508L104.586 2.24457C97.3908 0.449594 88.8531 0.149865 77.4628 0.149865H11.387L0 11.3795C13.0366 19.4654 27.8693 24.2577 43.3018 24.2577L126.446 24.2508ZM110.727 0L107.581 3.14375L164.816 60.4943H196.431L136.051 0H110.727ZM202.276 84.6021H306.402C290.969 69.1796 281.379 60.4943 265.503 60.4943H164.816C177.403 74.1184 188.94 84.6021 202.276 84.6021ZM890.317 113.049L869.04 134.313C868.74 136.261 868.74 138.356 868.74 140.604V198.847C870.398 198.846 872.054 198.695 873.685 198.397L892.281 179.838C892.712 178.17 892.913 176.451 892.88 174.729V113.049H890.317ZM768.949 105.413L751.421 87.596H673.205C666.811 87.6157 660.684 90.1639 656.164 94.6836C651.644 99.2034 649.097 105.327 649.081 111.717H749.921C758.612 111.717 763.854 109.456 768.949 105.413ZM1008.69 116.346L1005.39 113.049H892.713V137.157H984.712C990.553 137.179 996.203 135.081 1000.61 131.254C1005.02 127.426 1007.89 122.129 1008.69 116.346ZM1003.89 111.717L979.917 87.7595C978.554 87.4597 977.071 87.6096 975.571 87.6096H917.587C901.854 102.269 906.2 111.717 928.067 111.717H1003.89ZM1132 108.424L1122.26 98.6894L1107.88 113.063V172.048C1111.04 172.05 1114.18 171.428 1117.11 170.217C1120.04 169.006 1122.7 167.23 1124.94 164.991C1127.18 162.752 1128.96 160.094 1130.17 157.168C1131.38 154.242 1132 151.107 1132 147.94V108.424ZM1121.51 97.94L1111.17 87.6096H982.016C997.299 102.419 1005.09 111.717 1022.32 111.717H1107.73L1121.51 97.94ZM1019.47 137.157H1063.07C1084.8 137.157 1090.79 128.475 1106.23 113.049H1019.47V137.157ZM1011.53 171.898C1024.87 171.898 1035.51 161.115 1035.66 147.791V113.049H1011.53V171.898ZM1008.99 172.048L974.079 137.157H940.964L950.701 146.592L965.837 161.864C977.221 172.345 989.358 172.048 1008.99 172.048ZM781.686 24.2577H808.806L832.929 0.149865H768.65C757.263 13.6241 752.017 24.2577 781.686 24.2577ZM808.952 84.6021C812.121 84.6039 815.258 83.9815 818.186 82.7706C821.114 81.5597 823.774 79.784 826.014 77.5451C828.255 75.3061 830.031 72.6478 831.243 69.7221C832.455 66.7964 833.078 63.6607 833.076 60.4943V1.49865L808.952 25.6064V84.6021ZM783.036 111.717H870.986C892.713 112.167 900.205 103.632 915.634 87.6096H753.517C762.958 97.0306 776.141 111.717 783.036 111.717ZM721.006 49.7279H764.158C785.885 49.7279 791.877 41.0459 807.313 25.6235H741.534L721.006 49.7279ZM618.519 24.2747H722.209C743.936 24.7243 751.428 16.0389 766.857 0.166895H642.64C639.473 0.164657 636.336 0.786133 633.409 1.99581C630.483 3.20548 627.823 4.97964 625.583 7.21689C623.342 9.45415 621.565 12.1107 620.353 15.0346C619.14 17.9585 618.516 21.0926 618.516 24.2577L618.519 24.2747ZM761.744 171.898C783.322 171.898 793.659 170.536 807.892 155.277L854.793 109.756H823.178L761.744 171.898ZM669.745 84.6021C692.819 84.7519 706.895 78.3112 716.643 67.8308L758.749 25.5962H728.63L669.745 84.6021ZM611.311 84.6021C626.594 84.4522 642.026 84.6021 657.322 70.2253L701.824 25.6064H670.209L611.311 84.6021ZM783.769 147.954C783.622 134.33 773.431 122.947 759.798 121.748L649.081 111.717C649.099 118.307 651.586 124.651 656.051 129.501C660.515 134.351 666.635 137.354 673.205 137.92L783.769 147.954ZM486.211 24.2577H606.829L630.953 0.149865H510.335C507.166 0.148074 504.029 0.770418 501.101 1.98131C498.173 3.19221 495.513 4.96791 493.273 7.20688C491.032 9.44585 489.255 12.1042 488.044 15.0299C486.832 17.9556 486.209 21.0913 486.211 24.2577ZM759.812 172.048L783.782 147.94H698.235C676.361 147.94 653.883 156.626 638.451 172.048H759.819H759.812ZM510.335 49.7279H562.178C584.055 49.7279 590.047 41.0459 605.462 25.6235H534.458C531.29 25.6212 528.152 26.2432 525.225 27.4537C522.297 28.6642 519.637 30.4396 517.397 32.6783C515.156 34.917 513.379 37.5751 512.167 40.5006C510.956 43.4261 510.333 46.5616 510.335 49.7279ZM623.311 171.915C636.498 171.915 647.285 161.132 647.435 147.808V111.554C647.435 96.1314 640.544 87.4461 623.311 87.4461V171.915ZM586.901 111.554H623.611L623.461 87.4461H559.932C559.635 103.918 569.372 111.554 586.901 111.554ZM510.335 84.6021H609.225C593.793 69.1796 586.301 60.4943 564.427 60.4943H486.211C486.209 63.6607 486.832 66.7964 488.044 69.7221C489.255 72.6478 491.032 75.3061 493.273 77.5451C495.513 79.784 498.173 81.5597 501.101 82.7706C504.029 83.9815 507.166 84.6039 510.335 84.6021ZM486.211 60.4943H510.335V48.3655C509.885 34.5881 499.398 24.1078 486.211 24.2577V60.4943ZM460.591 84.6021C473.928 84.6021 484.715 73.6688 484.715 60.3444V0C471.528 0 460.591 11.0798 460.591 24.4075V84.6021ZM356.755 84.4692C359.924 84.471 363.062 83.8487 365.989 82.6378C368.917 81.4269 371.577 79.6512 373.817 77.4122C376.058 75.1733 377.835 72.5149 379.046 69.5892C380.258 66.6635 380.881 63.5278 380.879 60.3615V0.149865C367.693 0.149865 356.755 11.0798 356.755 24.4075V84.4692ZM331.136 84.6191C334.304 84.6209 337.441 83.9985 340.369 82.7876C343.296 81.5767 345.956 79.8009 348.196 77.5619C350.437 75.3229 352.213 72.6645 353.424 69.7388C354.636 66.8131 355.258 63.6775 355.256 60.5113V1.49865L331.136 25.6064V84.6191ZM296.072 24.2577H330.986L355.109 0.149865H257.415C272.848 15.5723 293.825 24.2577 296.072 24.2577ZM435.418 198.85L456.246 177.733C456.37 176.79 456.421 175.839 456.396 174.889V86.9965C443.209 86.9965 432.272 97.9264 432.272 111.254V199C433.323 199.025 434.374 198.975 435.418 198.85ZM238.387 49.7279H286.334C308.058 49.7279 314.053 41.0459 329.486 25.6235H262.211L238.387 49.7279ZM197.031 59.2954H213.963C226.25 59.2954 234.791 55.4023 241.983 47.4663L258.005 31.7441C269.842 19.1657 261.151 4.49594 256.505 0.29973L197.031 59.2954Z" fill="#B00000"/>
</svg>
